<?xml version="1.0" standalone="no"?>
<!DOCTYPE svg PUBLIC "-//W3C//DTD SVG 1.1//EN" "http://www.w3.org/Graphics/SVG/1.1/DTD/svg11.dtd">
<svg xmlns="http://www.w3.org/2000/svg">
<metadata>Generated by Fontastic.me</metadata>
<defs>
<font id="portfolio" horiz-adv-x="512">
<font-face font-family="portfolio" units-per-em="512" ascent="480" descent="-32"/>
<missing-glyph horiz-adv-x="512" />

<glyph glyph-name="email" unicode="&#102;" d="M479 328c-2 28-10 52-21 72-12 20-27 36-45 49-18 12-38 21-61 25-23 5-47 6-72 3-47-4-86-16-119-35-33-18-59-41-79-67-20-26-33-55-41-86-8-31-11-61-8-90 3-32 11-58 23-80 12-22 27-39 46-52 18-14 39-23 63-28 23-5 47-7 73-4 11 1 21 2 32 4 11 2 20 4 30 7 9 2 18 5 26 8 8 3 15 6 21 10-3 8-7 15-10 23-3 7-7 14-10 21-12-6-24-10-39-14-14-3-30-6-47-7-18-3-36-1-53 2-16 4-31 10-45 19-13 10-24 23-32 39-9 16-15 36-17 59-3 26-1 52 6 77 7 25 18 48 34 68 15 21 35 37 59 51 24 13 52 21 85 24 41 5 75-2 100-20 25-18 39-46 43-84 1-13 1-27-1-41-2-15-6-28-11-40-6-12-12-22-21-31-9-8-20-12-32-14-7 0-13 0-17 3l16 170c-13 4-27 6-41 6-15 1-29 1-44 0-20-2-38-8-54-17-16-9-30-21-41-36-12-15-20-32-26-51-6-20-8-40-6-63 2-14 5-26 10-35 5-11 12-18 19-25 8-6 16-10 26-12 9-2 20-3 30-2 17 2 30 5 40 10 11 4 21 10 30 16 14-12 33-16 57-14 21 2 40 10 56 21 17 12 30 26 41 43 10 17 18 36 23 56 5 21 6 41 4 62z m-199-132c-6-2-11-4-16-6-4-1-10-2-17-3-10-1-19 2-26 8-7 6-12 16-13 31-1 12-1 23 1 34 2 10 6 21 12 29 5 9 11 16 19 22 8 5 18 9 28 10 4 1 7 1 11 1 3 0 6-1 10-1z"/>
<glyph glyph-name="work-1" unicode="&#103;" d="M509 369c-2 34-27 60-61 60-20 0-40 0-60 0-19 0-19 0-19 18 0 38-25 63-64 64-16 0-33 0-50 0-17 0-35 0-53 0-28-1-51-18-59-45-2-10-2-19-1-28 0-8-3-9-10-9-22 0-43 0-65 0-40 0-62-26-65-66-3-28-3-54-1-83 2-25 8-42 26-55 2-1 3-2 4-4 54-42 116-60 184-67 8 0 10 2 10 10 2 19 14 33 29 33 16 1 28-11 31-31 1-1 1-3 1-4 0-7 2-8 9-8 27 2 53 7 78 14 48 14 92 35 128 72 4 5 8 9 9 17 4 38 1 75-1 112z m-332 57c0 32 35 58 78 58 43 0 79-26 79-58z m79-241c-12 0-23-15-23-32 0-17 11-31 22-31 13 0 23 14 23 31 0 17-10 31-22 32z m254 44l-1 0-38-35c-31-21-83-46-166-58 0 0-12 1-19-4-8-5-8-20-29-22l-2 0c-21 2-21 17-29 22-8 5-19 4-19 4-83 12-135 37-166 58l-39 35 0-153c0-6 0-11 1-16 0-1 0-3 0-4 8-53 54-52 54-52 0 0 4 0 10-1 30-2 110-2 188-2l1 0c79 0 158 0 189 2 6 1 9 1 9 1 0 0 47-1 54 52 1 1 1 3 1 4 0 5 1 10 1 16z m-254-228z m0 0l-1 0z"/>
<glyph glyph-name="work-2" unicode="&#104;" d="M301 189l-90 0 0 41-179 0 0-123c0-11 9-20 21-20l406 0c12 0 21 9 21 20l0 123-179 0z m158 185l-139 0 0 45c0 7-5 6-5 6l-130 0c0 0-6 0-6-7l0-44-126 0c-12 0-21-9-21-21l0-93 448 0 0 93c0 12-9 21-21 21z m-161 0l-97 0 0 36 97 0z"/>
<glyph glyph-name="paint" unicode="&#105;" d="M369 439l1 0c6 0 11 5 11 12 0 6-5 11-11 11l-1 0c0 0-324 0-324 0 0 0-2 0-2 0-6 0-11-5-11-11 0-7 5-12 11-12l2 0 0-372c0-10 7-17 17-17l290 0c9 0 17 7 17 17l0 180c26-9 51-15 70-15 19 0 34 6 39 18 14 33-43 84-109 120z m-156-40c-4 3-10 8-17 11-13 3-27 0-23-8l0-123c0-6-5-11-11-11-6 0-10 5-10 11l0 114c-5 8 8-41-29-19-21 12-18-4-20-12l0-135c0-6-5-11-11-11-5 0-11 5-11 11l0 135c-7 2-13 5-19 8l0 70 152 0z m250-141c-5-12-42-12-94 8l0 85c66-38 100-80 94-93z"/>
<glyph glyph-name="bug" unicode="&#106;" d="M460 222c-31 15-63 30-94 46-3 2-5 4-7 6-5 7-10 14-15 21 12 8 24 16 35 23 10 7 20 13 29 20 6 4 9 9 7 15-1 6-5 11-12 12-3 0-8-2-11-4-22-14-43-29-65-44-2 0-3-1-5-3 3 8 6 14 7 21 4 22-3 41-17 58-2 3-2 5-1 9 5 15 12 28 24 39 7 6 15 10 24 10 10 0 16 6 16 14 0 8-7 15-16 15-23-1-41-10-54-29-8-11-14-22-21-34-9 3-18 5-28 5-10 0-19-2-28-5-7 12-13 23-21 34-13 19-31 28-54 29-9 0-16-7-16-15 0-8 6-14 16-14 9 0 17-4 24-10 11-10 19-24 24-39 1-4 1-6-1-9-14-17-21-36-17-58 1-7 4-13 7-21-2 2-4 3-5 4-22 14-43 29-65 43-3 2-8 4-11 4-7-1-11-6-12-12-2-6 1-11 6-15 10-6 20-13 30-19 11-8 23-16 35-24-5-7-10-14-15-21-2-2-4-4-7-6-31-16-63-31-94-46-16-8-13-6-13-21-1-4 1-6 4-8 5-3 10-3 14 0 3 1 6 3 9 4 22 11 44 22 66 33-2-15-6-30-7-46 0-7-2-13-7-19-16-22-31-43-47-65-6-7-5-16 2-21 6-5 16-3 21 4 4 6 9 12 14 18 7 10 15 20 23 31 2-7 4-12 6-17 12-33 31-60 62-79 10-6 10-6 19 3 15 15 22 33 22 55 0 56 0 113 0 169 0 10 6 15 14 15 1 0 1 0 2 0 1 0 1 0 1 0 9 0 14-5 14-15 0-56 0-113 0-169 0-22 8-40 22-55 9-9 9-9 20-3 30 19 49 46 62 79 2 5 3 10 5 17 9-11 16-21 24-31 5-6 9-12 14-18 5-7 14-9 21-4 6 5 7 14 2 21-16 22-31 44-48 65-4 6-6 12-7 19-1 16-4 31-6 46 21-11 43-22 65-33 4-1 6-3 9-4 5-3 10-3 14 0 4 2 5 4 5 8 0 15 3 13-13 21z m-190 115c0-7-5-12-12-12l-4 0c-7 0-12 5-12 12l0 27c0 6 5 12 12 12l4 0c7 0 12-6 12-12z"/>
<glyph glyph-name="calendar" unicode="&#107;" d="M378 434c0 6 0 12 0 19 0 11-7 22-19 26-12 3-25-1-32-10-4-6-6-12-6-18l0-17c0-3-2-5-5-5l-30 0c-2 0-5 2-5 5 0 5 1 11 0 17 0 13-7 23-18 27-19 7-38-6-39-25 0-7 0-13 0-19 0-3-2-5-5-5l-31 0c-2 0-5 2-5 5 1 8 1 16 0 23-1 10-8 18-18 22-10 3-20 1-28-6-8-6-10-14-10-23 0-6 0-11 0-16 0-3-2-5-5-5l-84 0c-3 0-5-3-5-5l0-387c0-3 2-5 5-5l436 0c3 0 5 2 5 5l0 387c0 2-2 5-5 5l-91 0c-3 0-5 2-5 5z m-211-383l-110 0c-3 0-5 2-5 5l0 77c0 2 3 4 5 4l110 0c2 0 5-2 5-4l0-77c0-3-3-5-5-5z m0 106l-110 0c-3 0-5 2-5 5l0 81c0 2 3 4 5 4l110 0c2 0 5-2 5-4l0-81c0-3-3-5-5-5z m0 110l-110 0c-3 0-5 2-5 5l0 78c0 2 3 4 5 4l110 0c2 0 5-2 5-4l0-78c0-3-3-5-5-5z m146-216l-116 0c-3 0-5 2-5 5l0 76c0 3 2 5 5 5l116 0c2 0 4-2 4-5l0-76c0-3-2-5-4-5z m5 109c-1-2-3-3-5-3l-116 0c-3 0-5 2-5 5l0 81c0 2 1 4 3 5l3 0c38 0 76 0 114 0 4 0 6-1 6-6 0-26 0-53 0-80 0-1 0-2 0-2z m0 110c0-2-2-3-5-3l-116 0c-3 0-5 2-5 5l0 78c0 2 1 5 3 5l3 0c38 0 76 0 114 0 4 0 6-1 6-6 0-25 0-51 0-77z m25-23l112 0c2 0 4-2 4-4l0-81c0-3-2-5-4-5l-112 0c-4 0-6 2-6 5l0 81c0 2 2 4 6 4z m112-196l-112 0c-4 0-6 2-6 5l0 76c0 3 2 5 6 5l112 0c2 0 4-2 4-5l0-76c1-3-2-5-4-5z m0 216l-112 0c-4 0-6 2-6 5l0 78c0 2 2 4 6 4l112 0c2 0 4-2 4-4l0-78c1-3-2-5-4-5z"/>
<glyph glyph-name="idea" unicode="&#108;" d="M256 434c5 0 9 4 9 9l0 28c0 5-4 9-9 9-5 0-9-4-9-9l0-28c0-5 4-9 9-9z m-96-19c2-3 5-5 8-5 1 0 3 1 5 2 4 2 5 8 3 12l-14 24c-2 4-8 6-12 3-5-2-6-8-4-12z m-52-53l-24 14c-4 2-10 1-12-4-2-4-1-10 3-12l24-14c1-1 3-1 4-1 3 0 7 2 8 5 3 4 1 9-3 12z m-29-88l-26 0c-5 0-9-4-9-9 0-5 4-10 9-10l26 0c5 0 10 5 10 10 0 5-5 9-10 9z m381 0l-27 0c-5 0-10-4-10-9 0-5 5-10 10-10l27 0c4 0 8 5 8 10 0 5-4 9-8 9z m-20 98c-2 5-8 6-12 4l-24-14c-4-3-6-8-3-12 1-3 5-5 8-5 2 0 3 1 4 1l24 14c4 2 6 8 3 12z m-100 40c1-1 3-2 4-2 4 0 6 2 8 5l14 24c2 4 1 10-4 12-4 3-9 1-12-3l-14-24c-2-4-1-10 4-12z m-94-185c1-6 4-8 10-8 6 0 10 2 11 8l7 49c0 4 1 7 1 10l0 24c0 11-7 17-19 17-12 0-18-6-18-17l0-24c0-3 0-6 1-10z m10-21c-11 0-19-9-19-21 0-11 8-20 19-20 11 0 19 10 19 20 0 11-8 21-19 21z m-34 185c-58-17-94-56-103-116-10-57 11-106 58-141 7-7 16-14 19-22 7-23 22-32 45-29 5 1 10 0 16 0l21 0c22 0 27 5 37 24 4 9 9 18 17 24 45 32 66 76 64 131-4 87-90 151-174 129z m97-235c-10-8-18-18-26-28-14-24-57-25-73-2-9 12-19 24-31 32-39 31-55 85-38 133 16 47 60 78 111 76 58-1 106-54 106-120 0-36-17-67-49-91z m-33-90c-10 0-20 0-29 0-10 0-20 0-30 0-4-1-9-3-10-6-2-2 0-7 2-10 17-24 59-24 75 0 2 2 4 8 2 10-1 3-6 5-10 6z"/>
<glyph glyph-name="cart" unicode="&#109;" d="M420 214l-204 0c-4 0-7 2-9 5l-93 215c-1 3-5 5-8 5l-69 0c-3 0-5-3-5-6l0-17c0-3 2-5 5-5l51 0c3 0 6-2 7-5l94-215c1-3 5-5 8-5l223 0c3 0 5 2 5 5l0 17c0 3-2 6-5 6z m-177-56c-23 0-42-19-42-42 0-23 19-43 42-43 23 0 42 19 42 43 0 23-19 42-42 42z m140 0c-23 0-42-19-42-42 0-23 19-43 42-43 24 0 42 19 42 43 0 23-18 42-42 42z m93 224l-298 0c-3 0-4-2-3-5l7-18c1-2 4-5 7-5l276 0c3 0 7 3 8 5l7 18c1 3-1 5-4 5z m-45-112l-208 0c-3 0-4-2-3-5l7-18c1-3 4-5 7-5l186 0c3 0 6 2 8 5l7 18c1 3-1 5-4 5z m23 57l-253 0c-3 0-5-3-4-5l7-18c1-3 5-6 8-6l230 0c3 0 7 3 8 6l7 18c1 2 0 5-3 5z"/>
<glyph glyph-name="comment-1" unicode="&#110;" d="M480 401c0 6 0 12-2 17-7 32-33 52-66 52-104 0-209 0-313 0-39 0-67-29-67-67 0-68 0-136 0-204 0-5 1-11 2-16 7-30 32-51 63-51 13 0 26 0 40 0-2-10-3-19-6-27-5-18-12-35-23-50-6-6-3-12 5-13 6 0 12 0 18 2 20 9 40 19 59 30 24 13 38 34 56 53 3 3 5 5 10 5 53 0 105-1 158 0 38 0 66 29 66 67 0 67 0 134 0 202z"/>
<glyph glyph-name="checked" unicode="&#111;" d="M361 114l-261 0c-4 0-6 3-6 6l0 261c0 4 2 7 6 7l201 0c3 0 8 2 11 5l52 52c3 2 2 5-2 5l-324 0c-3 0-6-4-6-7l0-384c0-4 3-6 6-6l384 0c4 0 7 2 7 6l0 242c0 3-3 4-5 1l-52-52c-3-3-5-8-5-11l0-119c0-3-2-6-6-6z m-205 187l-34-35c-3-2-3-6 0-8l95-96c3-2 7-2 9 0l252 252c3 3 3 7 0 9l-34 35c-3 2-7 2-9 0l-209-209c-2-3-6-3-9 0l-52 52c-2 2-6 2-9 0z"/>
<glyph glyph-name="code" unicode="&#112;" d="M123 229l95-41c1 0 1 0 1 1l0 25c0 1-1 2-1 2l-65 25c-1 1-1 1 0 2l65 25c0 0 1 1 1 2l0 24c0 1 0 1-1 1l-95-41c-1 0-1-1-1-2l0-20c0-1 0-2 1-3z m118-60c2 0 4 1 6 2 1 1 2 3 3 5 0 2 1 5 2 9l28 111c1 6 2 9 2 11 0 3-1 5-3 7-2 1-5 2-8 2-3 0-6-1-7-3-1-3-3-7-4-12l-27-112c-2-6-2-10-2-11 0-6 3-9 10-9z m53 19l95 41c1 1 2 2 2 3l0 19c0 1-1 2-2 3l-95 41c0 0-1-1-1-1l0-24c0-1 1-2 1-2l65-26c1 0 1 0 0-1l-65-25c0 0-1-1-1-2l0-25c0-1 1-1 1-1z m159 265l-394 0c-15 0-27-12-27-27l0-340c0-15 12-27 27-27l394 0c15 0 27 12 27 27l0 340c0 15-12 27-27 27z m0-367l-394 0 0 295 394 0z"/>
<glyph glyph-name="message-globe" unicode="&#113;" d="M479 454c-2 12-8 19-21 20-6 0-12 0-17 0-124 0-248 0-372 0-7 0-13 0-20-2-9-1-14-8-16-17 0-5-1-10-1-15l0-251c0-4 0-8 1-12 2-15 8-20 23-20 28-1 56-1 85-1l9 0 0-104c0-5 0-11 5-13 6-3 9 1 13 5 40 36 79 72 119 108 3 2 7 4 10 4 50 0 98 0 147 0 7 0 14 1 20 2 9 1 13 7 15 15 0 5 1 10 1 15l0 253c0 4 0 9-1 13z m-376-122l152 0 0-35-152 0z m247-105l-247 0 0 35 247 0z m59 142l-306 0 0 34 306 0z"/>
<glyph glyph-name="computer" unicode="&#114;" d="M456 447l0 1-400 0 0-1c-13-1-22-11-24-24l0-269c0-6 1-10 3-14 5-9 13-14 23-14l145 0 0-31-45 0c-3 0-5-2-5-5l0-21c0-2 2-5 5-5l197 0c2 0 4 3 4 5l0 21c0 3-2 5-4 5l-46 0 0 31 145 0c10 0 17 5 22 14 3 4 4 8 4 14l0 269c-1 13-12 23-24 24z m0-26l0-267c0-2-1-3-2-3l-396 0c-1 0-2 1-2 3l0 269 400 0z"/>
<glyph glyph-name="terminal" unicode="&#115;" d="M468 444l-424 0c-7 0-12-5-12-11l0-354c0-6 5-11 12-11l424 0c7 0 12 5 12 11l0 354c0 6-5 11-12 11z m-6-346c0-7-5-12-11-12l-390 0c-6 0-11 5-11 12l0 316c0 6 5 11 11 11l390 0c6 0 11-5 11-11z m-368 224c21-21 43-43 65-65-21-21-43-43-64-64 4-5 8-9 11-12l77 77-77 76c-3-3-7-7-12-12z m114-144l117 0 0 17-117 0z"/>
<glyph glyph-name="earth" unicode="&#116;" d="M252 371l0-1 2 0c3 6-3 6-7 7l-2-1 1-1z m50-7l1 0c2 1 5-2 6 2-3 0-5 0-7 0 0 0 0-2 0-2z m-19 2l3 0c0 2-6 4-6 0-1 0 2 0 3 0z m-62 49c-2-2-2 2-3 1l-1-1c-3-3-10-4-9-10 6 1 10 5 13 10z m22-32c-5 2-5-3-5-6l1-2c4 1 6 5 4 8z m-19 35c0-1-1-2-1-3 0 1 2 0 2-1l-6-4c1 0 2 0 1-1l-3-1 3 0c0-2-2-2-3-2-1-1-2-2-2-4 1 1 2 1 4 2 3 1 7 0 11 3l-2 1c2 0 3 1 2 4l-1-1c1 3-2 8 1 10l1 1c-1 0-2 0-3 0l2 2c-4 0-6-4-9-6 1-2 3 1 3 0z m-2-4c0 1 0 1 1 1-1 0-1 0-1-1z m203-102l-2 0-1-1 0-3 0-1 1 1 1 0 1-1 1-2 2-3 0 0 0 4 1 0 0 1-1 3-2 5-1 1 0-4z m-1-31l1-1 2 1 1 1 0 2 0 1c-2-1-4-1-6-2l-1-1 0-6-1-3-1-3 0-3 1-2 0-3 0-3 0-2 1 0 1 3-1 5 1 2 1-2 0-2 1-1 1 1 0 3-1 4 0 1 0 1 2 3-1 1-1-1-1-1-1 1 0 3 1 2z m2-29l-1 0-3-2-2 1-1-1 0-2 1-1 3 1 3 3z m-6 2l-5 0-2-1 2-2 3-1 1 1 1 2c0 0 0 1 0 1z m11 37l-1 2 0-14 1 0 0 4 1 2 0 2-1 2z m-3-42l-3-2-1-2 0-2 0-2 1 1 3 3 4 5-2 0z m10 28l-1-1 0-2 0-3-1-1 0 1 0 3 0 4 0 2-1 1 0 0-1-1-1 0 0-2 0-3 0-1 1 0 0-1 0 0 1 0 0-1-1-1 0-5 1 0 0 2 0 0 0 1 1-1 0-2 0 0 1-1 0-2-1-3 0-6 0 0-1-1 0-3 1 1 0 0 0 0-1-2 0-1c2 9 3 17 3 25z m-24 56l1-4 0-3 1-1 1-2 0 1 0 4 2 0 1-1 1 1-1 3-2 0-2 1-1 4-1 4-1 4-2 2-1 0 0-1 1-1 0-2 1-3 0-3z m6-10l-1 0 0-1 1-3 0 0 1 0 0 0 0 2 0 1-1 1z m2 0l1-5 1-1 0 0 0 2 0 1-1 2 0 2-1 1 0 1-1 0 0-1 1-1z m-8-57l2 1 0 4 0 2 1 2 0 2 1 2 0 3 1 2 1 2-1 1-1 3-1 2 0 3 1 3 0 3-4 3-2-1 0-6 0 0c1-10 1-21 1-31z m-39-56l-1 3-3 1-2-2-1-2-8-10-9-5-1-1-1-2-1-2 1-11-4-11 0-2-1-3 1-2 3-3 4-1 5 3 3 8 11 22 3 14 1 3 0 0 0 3 0-1z m-94 226l3 0z m-25 44c-124 0-224-100-224-224 0-124 100-224 224-224 124 0 224 100 224 224 0 124-100 224-224 224z m0-408c-39 0-75 12-105 33 0 0 1 0 1 0 0 0-1 0-1 0 0 1-1 1-1 1 0 0-1 0-2 1 0 0 0 0-1 1-9 7-18 14-27 24 0 0 0 0 0 0 0 1-1 1-1 1l-3 4c0 0 0 0 0 1 0 0-1 1-1 2 0 0 2 0 3 2 1 5-2 9-4 13 1 0 2 0 3-1 2 2 2 5 3 8 0 1 0 2 0 4 0 8-6 15-5 22 3 10 9 20 11 31 0 1 1 2 1 3 2 2 3 4 3 6 0 1 1 4 0 5 0 2 0 4 0 5-1 0-1 1-1 2-1 0-4 2-6 4-3 2-5 3-5 3 0 0 0 0 0 0 0 1-1 1-1 1 0 0 0 0 0 0 0 0-1 0-1 1 0 0 0 0 0 0 0 0-1 0-1 0 0 0-1 0-1 0 0 1 0 1 0 1 0 0-1 0-1 0l-3 0c-1 0-2 0-3 0 0-1 0-1 0-1 0-1-1-1-1-1 0 0 0 0 0 0 0 0-1 0-1 0 1 4-2 10-7 8l0-3c-3 1 1 5-2 6-3 1-1-4-4-5 3 8 3 15-2 22-3 6-10 9-10 17-1 1-1 2-1 2-1 0-1 0-2-1 0 0-1-1-1-1 0 0 0 1 0 1 0 0 0 1 0 3 0 0 0 0 0 0 19 82 92 143 180 143 10 0 19-1 28-2-1 0-3-1-4-2-1 0-2 0-2 0-1-1-2-1-2-1 2 0 3 1 4 1 0 0 0 0-1 0l2 0c1 1 2 1 3 1 1 0 2 0 3 0-1 0-2-1-2-1-2-1-3-1-4-2l2 0-1-2 0 0c-2-1-4-1-7-1l6 2c-8 0-15-2-23-4-1 0-3-1-4-1-1-1-2-2-4-3-3-1-8-4-6-5 2-2 3-3 5-3 1-1 2-1 3-2 0-1 1-1 2-2 6-1 10 5 6 9 1 1 2 2 3 3 1 2 3 3 4 4-2-1-2-5-1-6 1-1 3-1 5 0 2 1 5 2 7 2 0-1-2-1-3-2-2 0-3-1-4-1-3 0-4-3-2-5-1 1-2 1-3 1-1-9-12-10-18-6 1 0 3-1 4 1 0 1-1 1-3 0l0 3c-3 1-3-3-3-6l-4 1c-7-5-14-8-21-11-2 0-3-1-5-2 4-1 4-9 0-8-11 3-25 6-27-8 0-2-2-5 0-6 7-5 16-5 25-2 2 1 4 5 7 6 1 0 3 1 4 2 1 1 2 2 3 4 1 1 3 2 4 2 2 0 5 0 7 1 1 0 2 0 4 0 5-6 15-12 19-20 0 3 3 6 6 3-3 6-16 11-17 20 9-6 17-10 23-21 1 0 4-1 6 0 3 1 2 3 1 4-1 1-2 2 0 4 1 2 1 1 2 0 6-12 22-6 28-11 9-7-5-16-16-14-6 1-11 2-15 4-2 0-3 1-4 1-1 0-3 0-3 0-1-1-2-2-2-2-1-1-1-2-1-3 0 0 0-1-1-1 0-1-2 0-3 0-2 1-3 2-4 2 0 0-2 1-3 2-1 0-2 1-4 1-6 0-13 4-9 12-6 2-12 2-18 2-2-1-3-1-5-1-8-3-16-3-24-3-6 0-11-7-14-13-1-1-1-2-2-3-3-3-7-6-10-7-3-1-4-2-5-3-11-9-15-23-18-37 0 0-1-1-1-1-1-1-1-2-1-3 1-1 0-3 0-4 0-1 0-2 0-2 0-1 0-1 0-2 0 0 2 0 2 0 1-1 2-3 3-4 1-1 1-3 2-4 7-23 32-21 50-14l4 1c1 0 3 0 4 1 3-1 6-1 6-2 0 0 0-1 1-1 0 0 0 0 0-1 0 0 1 0 1 0 0-1 0-1 0-1 0 0 1-1 1-1 1-1 3-1 5-1 4 0 5-1 7-4 4-8-3-17 5-22 1-1 1-2 2-3 1-1 2-3 3-5 2-3 4-8 4-11 0-3 2-5 2-6 1-1 1-3 0-5 0-1 0-2 0-3-4-5-7-12-6-19 3-10 10-20 13-30l0-2c0 0 1-1 1-2 0 0 1-1 1-1 0 0 0 0 0 0 1 0 1-1 1-1 0 0 0-1 1-2 1-1 2-3 2-4 1-1 2-3 2-4 1-1 1-2 0-2 0 0 0-1 0-1 0-1 0-1 0-2 0 0 1-1 2-2 0-1 1-1 1-2 1 0 2 0 3 0 2 0 3 0 3 0 1 0 2 0 2 1 0 0 1 1 2 1 0 0 4 1 9 1l14 7c2 2 5 5 5 6 0 1 2 3 3 4 2 1 3 3 4 5 0 1 1 3 1 4 2 2 7 2 7 5 2 9 5 17 11 26 1 1 2 2 3 4 4 8 7 17 7 27-1 1-1 2-2 3-5 18 11 30 28 38 1 1 1 2 2 3 1 4 3 7 4 12 0 1 1 2 1 3 3 3 2 6 2 9-5-3-11-2-16-3-1 0-2 0-3 0-1 0-2 0-2 1-1 0-3 1-6 2-2 1-3 3-4 4-1 0-3 4-4 5-1 1-3 3-3 4-3 4-6 8-9 13-3 6-7 11-11 17-1 1-1 2-2 3-1 1-2 2-3 4-2 2-3 3-4 4-1 1-1 2 0 2 5 3 4-5 8-5 1-1 2-2 3-3 1-1 2-2 3-3 1-2 2-3 4-4 4-6 8-12 13-18 1-1 2-2 2-3 1-1 2-3 2-4 3-16 21-8 30-5 5 3 12 6 12 12 3 12-7 19-15 26 0-7-8-7-11-2-1 1-1 2-2 3l-1-3c-1 5-5 9-7 12 4 0 7-2 12-4l5-2c8-4 17-8 28-7 2 1 3-1 4-4 0-1 1-2 1-4 0-1 0-3 0-4 1 1 2 3 3 4 0 2 2 3 2 5 3 9 3 19 0 28 22-30 34-67 34-107 0-102-82-184-184-184z m26 365c0 0-1 0-1 0 0 0 1 0 1 0z m-2-1l1 0z"/>
<glyph glyph-name="globe" unicode="&#117;" d="M414 412c-20 20-44 36-71 47-28 12-57 18-87 18-30 0-59-6-87-18-27-11-51-27-71-47-21-20-37-44-48-70-12-27-18-56-18-86 0-30 6-59 18-86 11-26 27-50 48-70 20-20 44-36 71-47 28-12 57-18 87-18 30 0 59 6 88 18 26 11 50 27 71 47 20 20 36 44 47 70 12 27 18 56 18 86 0 30-6 59-18 86-11 26-27 50-48 70z m22-138l-48 0c-4 0-7 3-8 7-1 23-5 45-10 65-1 4 1 7 5 8 8 3 17 6 25 10 3 2 8 1 10-3 16-23 28-51 32-80 0-4-3-7-6-7z m-155 152c2-1 3-3 5-4 11-8 21-21 29-36 1-1 2-3 2-4 1-2-1-5-4-5-10-2-21-3-32-3-3-1-7 2-7 6l0 42c0 4 3 6 7 4z m-55-4c2 1 3 3 5 4 4 2 7 0 7-4l0-42c0-4-4-7-7-6-11 0-22 1-32 3-3 0-6 3-4 5 0 1 1 3 2 4 8 15 18 28 29 36z m-48-85c1 4 4 6 8 6 15-3 30-5 45-6 3 0 7-3 7-7l0-49c0-4-4-7-7-7l-56 0c-4 0-7 3-7 7 1 16 4 32 7 47 1 3 2 6 3 9z m60-106l0-49c0-4-4-7-7-7-15-1-30-3-45-6-3 0-7 2-8 6-1 3-2 6-3 9-3 15-6 31-7 47 0 4 3 7 7 7l56 0c3 0 7-3 7-7z m0-99l0-42c0-3-3-6-7-3-1 1-3 2-5 4-11 8-21 21-29 36-1 1-2 2-2 4-1 1 1 4 5 4 10 2 20 3 31 3 3 1 7-2 7-6z m48-41c-2-2-3-3-5-4-4-3-7 0-7 3l0 42c0 4 4 7 7 6 11 0 21-1 31-3 4 0 6-2 5-4 0-1-1-3-2-4-8-16-18-28-29-36z m48 84c-1-4-5-6-8-6-15 3-30 5-45 6-3 0-7 3-7 7l0 49c0 4 4 7 7 7l56 0c4 0 7-3 7-7-1-16-4-31-7-47-1-3-2-6-3-9z m-60 106l0 49c0 4 4 7 7 7 15 1 30 3 45 6 4 0 8-2 8-6 1-3 2-6 3-9 3-15 6-31 7-47 0-4-3-7-7-7l-56 0c-3 0-7 3-7 7z m99 111c-3-1-7-2-11-3-3-2-7 0-9 4-2 3-3 6-5 10-3 5-6 10-10 15-2 3-1 4 3 3 12-6 23-13 33-22 3-2 3-5-1-7z m-199 26c-4-5-7-10-10-15-2-4-3-7-5-10-2-4-6-6-9-4-4 1-8 2-11 3-4 2-4 5-1 7 10 9 21 16 33 22 4 1 5 0 3-3z m-61-54c7-4 16-7 24-10 4-1 6-4 5-8-5-20-9-42-10-65 0-4-4-7-8-7l-48 0c-3 0-6 3-6 7 4 29 16 57 32 80 2 4 7 5 11 3z m-37-126l48 0c4 0 8-3 8-7 1-23 5-45 10-65 1-4-1-7-5-8-8-3-17-6-24-10-4-2-9-1-11 3-16 23-28 51-32 80 0 4 3 7 6 7z m63-118c3 1 7 2 11 4 4 1 8-1 9-5 2-3 3-6 5-9 3-6 7-11 10-16 3-3 2-5-2-3-12 6-24 13-34 22-3 2-3 5 1 7z m199-26c3 4 7 10 10 16 2 3 3 6 5 9 1 4 5 6 9 5 4-2 8-3 11-4 4-2 4-5 1-7-10-9-22-16-34-22-4-2-5-1-2 3z m61 54c-7 4-16 7-24 10-4 1-6 5-5 8 5 20 9 42 10 65 0 4 4 7 8 7l48 0c3 0 6-3 6-7-4-29-16-57-32-80-2-4-7-5-11-3z"/>
<glyph glyph-name="heart" unicode="&#118;" d="M256 381c8 15 18 27 31 37 46 38 117 34 159-8 33-34 41-75 28-119-10-35-29-65-51-92-37-45-82-80-131-110-10-7-22-14-32-20-2-1-5-1-7 0-55 31-108 68-151 116-27 28-48 60-61 97-11 30-13 61 0 91 18 39 49 63 91 69 53 8 95-12 123-59 0-1 0-1 1-2z"/>
<glyph glyph-name="home" unicode="&#119;" d="M474 295l-49 35c0 2 0 3 0 5 0 12 0 24 0 36 0 11 0 24 0 36 0 7-2 9-8 9-16 0-32 0-47 0-7 0-9-2-9-9l0-32-97 69c-7 5-9 5-15 0l-125-88c-29-20-57-41-87-61-5-4-6-7-3-12 10-14 19-27 28-41 1-1 4-2 6-4 3 1 5 3 7 4l11 7c-1-1-1-3-1-4 0-57 0-113 0-170 0-8 2-10 11-10l106 0c9 0 11 1 11 10l0 151 86 0 0-151c0-8 2-10 10-10l107 0c8 0 10 2 10 9 0 58 0 115 0 172 0 1 0 3-1 4l12-8c7-5 9-4 14 2l26 37c5 7 4 9-3 14z"/>
<glyph glyph-name="picture" unicode="&#120;" d="M349 227c-7 7-16 7-22-1-3-4-6-9-10-14-5-8-15-8-22-1-13 16-27 32-41 48-6 7-16 7-23-1l-21-24c-6-8-15-10-21-5-6 5-13 5-17 0-4-5-10-3-14 4-2 4-5 9-7 13-3 3-5 5-6 4 0 0 0-1-1-2-13-25-44-80-47-79l-4-42 317 0c9 0 12 7 6 14z m-42 64c27 0 47 20 47 45 1 28-20 49-46 49-26 1-48-21-48-48 1-26 21-46 47-46z m153 152l-408 0c-11 0-20-9-20-21l0-332c0-11 9-20 20-20l408 0c11 0 20 9 20 20l0 332c0 12-9 21-20 21z m-6-330c0-11-9-20-20-20l-356 0c-11 0-20 9-20 20l0 286c0 11 9 20 20 20l356 0c11 0 20-9 20-20z"/>
<glyph glyph-name="about" unicode="&#121;" d="M452 211l0 104-38-5c-2 16-10 23-18 27-1 8-1 15-2 22-5 93-52 122-128 120-9 0-19-1-29 0-40 6-78-24-101-52-27-33-17-86-17-89-10-3-18-11-20-27l-33 4 0-100c-14-7-23-21-23-38 0-16 9-31 23-37l0-83 193-25 193 25 0 86c10 7 17 20 17 34 0 14-7 27-17 34z m-202-163l-167 22 0 67c20 1 36 18 36 40 0 22-16 40-36 41l0 80 15-2 152-20z m-104 257c-1 5-1 9-1 14 1 10 5 19 9 27 8 16 22 29 40 35 4 2 8 0 11-3 3-4 2-9-1-12l-1-1c-2-3-3-6-1-9 2-3 5-4 8-4 25 4 63 14 96 36 7 5 17 7 25 5 9-2 17-7 22-15 0 0 1-1 1-2 11-16 16-34 16-52 0-7 0-13-1-19l-110-15z m288-87l-3 0c-21 0-38-18-38-41 0-22 17-41 38-41 1 0 2 1 3 1l0-67-167-22 0 228 167 22z"/>
<glyph glyph-name="certificate" unicode="&#122;" d="M377 340l0 3c0 2-2 4-5 4l-250 0c-3 0-5-2-5-4l0-23c0-3 2-5 5-5l213 0c13 11 26 19 42 25z m-68-55l-187 0c-3 0-5-2-5-5l0-22c0-3 2-5 5-5l173 0c3 11 8 22 14 32z m-187-65c-3 0-5-2-5-5l0-21c0-3 2-5 5-5l170 0c-1 9-2 17-2 26 0 2 0 3 0 5z m199-90l-258 0c-7 0-12 5-12 11l0 255c0 6 5 11 12 11l299 0c7 0 15-4 20-8 10-8 20-16 30-25 7-6 16-14 23-20 2-2 4-4 5-7 7-1 15-2 22-4l0 71c0 6-5 11-11 11l-407 0c-7 0-12-5-12-11l0-292c0-6 5-11 12-11l296 0c-7 6-13 12-19 19z m155 117c-3 7-5 15-3 23 1 9-2 15-10 19-9 4-15 9-19 18-4 8-11 11-19 9-9-2-17-1-26 3-7 5-14 3-21-3-5-7-12-11-21-12-10-1-14-7-15-17-2-8-5-15-11-21-7-7-8-15-3-23 5-7 6-15 4-23-1-9 1-16 10-19 9-4 15-11 20-20 2-3 4-5 7-7l0-82c0-6 2-6 6-1l22 36c3 5 8 5 12 0l22-36c3-5 5-5 5 1l0 89c0 0 0 1 0 1 4 2 8 3 12 4 11 2 14 6 15 16 1 8 4 16 10 22 8 8 9 12 3 23z m-74-53c-28 0-50 23-50 51 0 28 22 50 51 50 28 0 50-22 51-50 0-28-24-51-52-51z m40 51c0-22-18-40-40-40-22 0-39 18-39 40 0 22 18 39 39 39 22 0 40-18 40-39z"/>
<glyph glyph-name="list" unicode="&#65;" d="M424 480l-336 0c-15 0-28-13-28-28l0-392c0-15 13-28 28-28l336 0c15 0 28 13 28 28l0 392c0 15-13 28-28 28z m-96-46l81 0 0-28-81 0z m-226 0l81 0 0-28-81 0z m318-371l-328 0 0 301 328 0z m-283 222l240 0c8 0 14 7 14 15 0 8-6 14-14 14l-240 0c-7 0-14-6-14-14 0-8 7-15 14-15z m0-59l240 0c8 0 14 6 14 14 0 8-6 14-14 14l-240 0c-7 0-14-6-14-14 0-8 7-14 14-14z m0-60l240 0c8 0 14 7 14 14 0 8-6 15-14 15l-240 0c-7 0-14-7-14-15 0-8 7-14 14-14z m0-60l240 0c8 0 14 7 14 14 0 8-6 15-14 15l-240 0c-7 0-14-6-14-15 0-8 7-14 14-14z"/>
<glyph glyph-name="pin" unicode="&#66;" d="M246 43c-9 13-19 26-28 39-32 44-60 91-84 140-11 24-22 49-27 75-10 50 2 94 35 132 33 36 74 53 123 51 67-3 126-54 140-121 6-27 4-53-5-80-17-53-43-101-73-147-21-34-45-65-67-98-1 0-1-1-2-2-1-1-7 4-12 11z m85 283c1 38-30 74-69 76-44 2-78-28-80-73-2-38 30-74 69-76 43-2 77 29 80 73z"/>
<glyph glyph-name="send" unicode="&#67;" d="M479 475c-57-147-114-293-171-441-1-2-3-2-4 0-3 8-7 17-10 24-24 56-47 111-71 166-1 3-3 5-5 6-61 24-122 48-183 71 0 1-1 1-2 2-2 0-1 2 2 3 147 58 294 115 440 172 2 1 5 2 5 2 0-1 0-3-1-5z"/>
<glyph glyph-name="pines" unicode="&#68;" d="M141 286c18 23 35 47 46 73 4 10 8 20 8 31-1 54-54 93-106 77-42-13-72-64-49-108 9-17 18-33 29-49 13-20 29-38 44-58 10 12 19 23 28 34z m-56 104c0 15 13 28 29 28 16 0 28-14 28-29 0-15-13-29-28-28-16 0-29 13-29 29z m394-168c-6 48-54 80-101 68-42-10-78-62-51-114 13-25 30-49 47-72 8-9 16-19 24-29 20 23 39 45 54 70 8 13 15 27 22 40 5 12 7 24 5 37z m-80-39c-16 0-29 13-29 28 0 16 13 29 29 29 15 0 29-13 28-29 0-15-13-28-28-28z m-117-117c-9 0-17 1-25 1-8 1-12-3-13-9 0-7 4-11 11-12 8 0 15-1 22-1l3 0c8 0 12 3 13 10 0 5-4 10-11 11z m-135 16c-7 2-15 5-23 7-1 0-3 1-4 1-5 0-9-4-10-9-1-5 1-10 7-12 8-3 17-6 25-8 8-2 13 1 14 8 2 6-1 11-9 13z m69-11c-10 1-19 2-29 3-6 0-10-3-11-9 0-6 3-11 9-12 9-1 18-2 27-3 7-1 11 3 12 8 1 7-2 12-8 13z m4 108c-10-2-19-5-28-7-5-2-8-7-7-13 1-4 5-8 11-9 10 3 21 6 31 10 5 1 6 7 5 12-2 5-6 8-12 7z m-65-16c-11-2-21-5-31-8-5-1-7-7-5-12 1-5 5-8 12-8 9 3 19 5 30 8 4 2 6 8 5 12-2 5-6 9-11 8z m104 34c-2 13-11 22-23 28-2 1-4 1-6 0-4-1-7-4-8-8-1-5 1-9 5-11 6-3 11-7 12-15 1-5 5-7 9-7 8 0 13 6 11 13z m-56 28c1 6-3 11-10 12-8 1-15 1-21 2l-4 0c-8 0-12-3-13-10 0-7 4-10 12-11 8-1 16-1 23-2 7-1 12 2 13 9z m149-162c-9 0-20 1-30 0-6 0-10-5-9-11 0-5 4-9 10-10 5 0 9 0 14 0 2 0 5 0 7 0 2 0 4 0 7 0 5 0 10 5 10 10 0 5-4 10-9 11z m-267 71c-7-7-10-15-10-26 0-3 1-6 3-10 2-5 7-7 12-6 6 2 9 7 7 12-2 7 0 12 4 16 4 5 3 11-1 15-4 3-11 3-15-1z m323-71c-6 0-11 0-17 0-5-1-10-6-9-11 0-5 4-10 10-10 2-1 5-1 7-1l0 1c3 0 5-1 8 0 6 0 10 5 10 10 0 5-4 10-9 11z m-291 156c3 0 6 0 9 0 6 1 9 5 9 10 0 5-4 11-9 11-6 0-11 0-17 0-5 0-9-6-10-11 0-5 4-9 10-10 3 0 6 0 8 0z"/>
<glyph glyph-name="map" unicode="&#69;" d="M184 260c-16 0-28-13-28-29 0-15 12-28 28-28 16 0 28 13 28 28 0 16-12 29-28 29z m277-29c0 3 0 9 1 12l17 140c1 4-1 7-4 8l-128 49c-3 1-8 1-10-1l-156-74c-3-1-7-1-11 0l-134 56c-2 1-4 0-4-3l18-151c1-3 1-8 0-12l-17-148c0-3 2-6 5-7l142-26c3-1 8-1 11 0l146 27c3 1 8 1 11 0l127-29c3-1 5 1 5 4z m-120 189c0 3 3 5 6 3l112-42c2-1 4-4 4-7l-7-56c0-3-3-5-6-4l-111 29c-3 0-6 3-5 6z m-152-68l131 63c3 1 5 0 5-3l-6-59c0-3-3-6-6-6l-73-10c-3 0-6-1-6-1l-1-1c0-1-8-30-17-48-1-3-5-4-8-2-3 1-7 3-11 3-3 1-6 4-7 7l-5 49c-1 3 1 7 4 8z m128-16l-4-68c-1-4-3-6-6-7l-63-9c-3-1-6 1-7 4-4 7-9 14-14 19-3 2-3 6-2 9 7 12 13 31 16 42 1 3 4 6 7 6l68 9c3 1 6-2 5-5z m-194 32l41-17c3-1 5-4 6-7l5-49c1-4-1-6-5-7-17-4-32-17-39-34-1-2-5-4-8-4l-51 8c-3 1-6 4-6 7l-6 46c0 3 2 6 6 6 17 3 31 9 40 20 8 9 11 19 12 28 0 3 3 5 5 3z m-73 26c0 3 2 5 5 3l53-22c2-1 5-5 4-8 0-8-3-18-10-26-8-10-21-16-37-17-3-1-6 1-7 5z m41-288l-37 7c-3 0-5 3-5 6l14 120c1 3 4 5 7 4l50-7c3-1 6-2 6-3 0-1 0-1 0-2 0-11 3-22 9-31 2-2 1-6-1-8l-23-18c-3-2-5-7-6-10l-8-53c0-3-3-6-6-5z m79-9c0-3-3-5-6-5l-56 11c-4 0-6 3-5 7l8 51c0 3 3 7 5 9l22 18c2 1 6 1 8-1 8-6 17-10 27-12 3-1 5-4 5-7z m-33 134c0 27 21 47 47 47 25 0 46-20 46-47 0-25-21-46-46-46-26 0-47 21-47 46z m90-135l-36-7c-3 0-6-1-6-1 0 0 0 3 0 6l8 75c0 3 3 6 6 7 25 6 43 29 43 55l0 3c0 1 2 3 5 3l61 9c3 1 6-1 6-5l5-50c0-3-2-5-5-6-29-2-50-11-64-28-16-18-18-41-18-55 0-3-2-6-5-6z m94 18l-77-15c-3-1-6 1-6 5 0 13 3 33 16 49 13 15 33 25 60 27 4 0 7-2 7-5l5-55c0-3-2-6-5-6z m6 156l5 62c1 3 3 5 6 5l111-28c3-1 5-4 5-7l-6-47c-1-3-3-5-6-5l-109 14c-3 0-6 3-6 6z m131-179l-61 14c-3 1-6 4-6 7l-9 82c0 3 3 6 6 5l37-4c4 0 6 1 6 2 0 2-2 3-6 4l-44 5c-3 0-5-2-5-5l9-87c0-3-2-5-5-5l-33 7c-3 1-6 4-7 7l-11 121c0 3 0 5 0 5 0 0 3 0 6 0l105-13c3-1 6-4 6-7l16-133c1-3-1-5-4-5z"/>
<glyph glyph-name="moon" unicode="&#70;" d="M171 380c0 32 7 62 20 89 5 9 1 13-8 10-88-33-151-117-151-216 0-127 104-231 231-231 99 0 183 63 216 151 3 9-1 13-10 8-27-13-57-20-89-20-115 0-209 94-209 209z"/>
<glyph glyph-name="list-empty" unicode="&#71;" d="M387 425l-49 0 0 6c0 7-6 13-13 13l-34 0 0 23c0 7-5 13-12 13l-46 0c-7 0-12-6-12-13l0-23-34 0c-7 0-13-6-13-13l0-6-49 0c-10 0-19-8-19-18l0-357c0-10 9-18 19-18l262 0c10 0 18 8 18 18l0 357c0 10-8 18-18 18z m-149 39c0 1 0 2 1 2l34 0c0 0 1-1 1-2l0-17-36 0z m143-405c0-1-1-3-2-3l-246 0c-1 0-3 2-3 3l0 336c0 2 2 3 3 3l43 0 0-20c0-7 5-12 12-12l136 0c7 0 12 5 12 12l0 20 43 0c1 0 3-1 3-3l0-336z"/>
<glyph glyph-name="bars" unicode="&#72;" d="M32 398l0-12c0-19 16-35 35-35l378 0c19 0 35 16 35 35l0 12c0 20-16 36-35 36l-378 0c-19 0-35-16-35-36z m35-183l378 0c19 0 35 15 35 35l0 12c0 20-16 35-35 35l-378 0c-19 0-35-15-35-35l0-12c0-20 16-35 35-35z m0-137l378 0c19 0 35 16 35 35l0 13c0 19-16 35-35 35l-378 0c-19 0-35-16-35-35l0-13c0-19 16-35 35-35z"/>
<glyph glyph-name="star" unicode="&#73;" d="M479 304c-8-9-17-17-26-26-23-23-46-46-70-68-4-4-7-7-11-11-1-2-2-4-2-6 9-51 18-101 26-152 0-1 0-1 0-1 0-1-2 0-5 2-9 5-18 9-26 14-36 18-71 37-106 56-4 1-6 1-8-1-44-23-88-46-133-70 0 0-1-1-2-1-1 0-2 1-1 5 2 11 3 23 5 35 7 38 14 76 20 114 0 1-1 4-2 5-23 23-46 45-69 68-13 12-24 25-36 38-2 2-1 4 2 4 6 1 13 2 20 3 31 5 62 9 93 14 10 1 21 3 31 4 4 1 6 2 8 6 21 44 43 88 65 132 0 1 1 2 1 3 1 1 2 2 4 0 0 0 1-1 1-2 22-45 44-89 66-134 1-3 3-4 7-5 45-6 90-13 136-20 4 0 7-1 10-1 3 0 4-2 2-5z"/>
<glyph glyph-name="dislike" unicode="&#74;" d="M98 215c-16 0-32 0-49 0-12 0-17 4-17 16l0 215c0 12 5 17 16 17 17 0 34 0 50 0 12 0 17-5 17-17 0-71 0-143 0-215 0-12-5-16-17-16z m328-15l-138 0c0-1 1-2 1-3 5-25 9-52 9-78 0-17-1-33-8-49-4-10-10-18-22-20-11-3-20 1-21 11-2 7-3 14-4 21-1 17-6 32-17 44-7 8-12 15-19 22-17 17-29 36-38 58-2 4-4 8-6 12-4 7-10 10-18 10-8 1-12 3-14 12-1 3-2 7-2 11 0 59 0 117 0 175 0 4 0 7 1 10 1 9 7 14 16 14 4 0 7 0 11 0 13 1 27 2 41 6 14 3 28 7 43 7l114 0c0 0 1 0 2 0 26-1 47-22 48-49 14-10 23-26 23-44l0-1c0-1 0-3 0-4 2-2 4-3 5-5 11-10 18-24 18-39l0-2c0-5-1-10-3-15 19-8 32-27 32-49l0-1c0-30-24-54-54-54z"/>
<glyph glyph-name="like" unicode="&#75;" d="M98 297c-16 0-32 0-49 0-12 0-17-4-17-16l0-216c0-11 5-16 16-16 17 0 34 0 50 0 12 0 17 5 17 17 0 71 0 143 0 215 0 12-5 16-17 16z m328 15l-138 0c0 1 1 2 1 3 5 25 9 51 9 78 0 17-1 33-8 48-4 10-10 18-22 21-11 3-20-1-21-11-2-8-3-15-4-22-1-16-6-31-17-43-7-8-12-16-19-22-17-17-29-36-38-58-2-4-4-8-6-12-4-7-10-10-18-10-8-1-12-4-14-12-1-3-2-7-2-11 0-59 0-117 0-176 0-3 0-6 1-9 1-9 7-14 16-14 4 0 7 0 11 0 13-1 27-3 41-6 14-3 28-8 43-8l114 0c0 0 1 0 2 1 26 1 47 22 48 48 14 11 23 26 23 45l0 1c0 1 0 3 0 4 2 1 4 3 5 5 11 9 18 24 18 39l0 1c0 6-1 11-3 15 19 9 32 28 32 50l0 1c0 30-24 54-54 54z"/>
<glyph glyph-name="terminal-2" unicode="&#76;" d="M100 245c0-2 0-5 0-8 0-5 0-10 1-17l86 43c2 6 2 12 2 18 0 7 0 13-2 21l-86 43c-1-4-1-8-1-11 0-3 0-5 0-8 0-3 0-5 0-9 0-3 0-5 1-8l63-27-63-28c-1-3-1-6-1-9z m109-78l102 0c1 3 1 5 1 7 0 2 0 4 0 6 0 2 0 4 0 6 0 2 0 5-1 7l-102 0c-1-2-1-5-1-6 0-2 0-4 0-6 0-2 0-4 0-6 0-3 0-5 1-8z m-177 219l0-260c0-22 18-40 40-40l368 0c22 0 40 18 40 40l0 260c0 22-18 40-40 40l-368 0c-22 0-40-18-40-40z m392-283l-334 0c-22 0-40 17-40 39l0 228c0 21 18 39 40 39l334 0c22 0 40-18 40-39l0-228c0-22-18-39-40-39z"/>
<glyph glyph-name="checked-2" unicode="&#77;" d="M480 442c0 0-17 25-20 25-116-71-200-162-235-202l-87 69c-3 2-50-41-49-42l159-163c1-1 3-2 5-2 0 0 0 0 1 0 2 1 4 3 5 5 26 65 110 203 219 303 2 1 3 4 2 7z m-57-343c0-17-13-31-30-31l-307 0c-17 0-31 14-31 31l0 306c0 17 14 31 31 31l269 0c0 0 11 10 26 23l-318 0c-17 0-31-14-31-30l0-354c0-17 14-30 31-30l353 0c17 0 31 13 31 30l0 282c-8-7-16-13-24-19z"/>
<glyph glyph-name="notes" unicode="&#78;" d="M143 403l13 0c10 0 18 10 18 21l0 35c0 12-8 21-18 21l-13 0c-9 0-18-9-18-21l0-35c0-11 9-21 18-21z m206 0l12 0c10 0 18 10 18 21l0 35c0 12-8 21-18 21l-12 0c-10 0-18-9-18-21l0-35c0-11 8-21 18-21z m69 38l-18 0 0-17c0-23-17-42-39-42l-12 0c-21 0-39 19-39 42l0 17-115 0 0-17c0-23-18-42-39-42l-13 0c-21 0-39 19-39 42l0 17-10 0c-31 0-55-24-55-53l0-302c0-30 24-54 55-54l324 0c31 0 55 24 55 54l0 302c0 29-25 53-55 53z m29-350c0-15-12-28-27-28l-328 0c-15 0-27 13-27 28l0 245 382 0z m-317 152l252 0c8 0 14 10 14 22 0 13-6 23-14 23l-252 0c-8 0-14-10-14-23 0-12 6-22 14-22z m0-70l252 0c8 0 14 10 14 22 0 12-6 23-14 23l-252 0c-8 0-14-11-14-23 0-12 6-22 14-22z m0-70l152 0c8 0 14 10 14 22 0 13-6 22-14 22l-152 0c-8 0-14-9-14-22 0-12 6-22 14-22z"/>
<glyph glyph-name="check" unicode="&#79;" d="M406 429c-68-65-136-129-203-194-5-4-12-4-16 1l-72 75c-4 4-11 5-16 1-21-19-42-37-63-56-5-4-5-11-1-15 47-53 95-105 142-157 4-4 11-5 16-1 95 89 189 177 283 264 5 5 5 12 1 17-19 21-37 43-56 64-4 5-10 5-15 1z"/>
<glyph glyph-name="eye" unicode="&#80;" d="M242 427l28 0c1-1 3-1 4-1 20-2 40-6 58-13 67-24 121-66 165-120 20-25 20-50 0-74-28-35-61-63-98-87-30-19-62-34-98-42-10-2-21-3-31-5l-28 0c-1 1-3 1-5 1-17 2-34 5-50 11-70 23-127 67-173 123-8 9-13 20-14 32-1 17 6 31 17 44 28 34 61 62 98 85 31 20 64 35 101 42 8 1 17 2 26 4z m-93-171c0-59 48-106 106-107 59 0 107 48 107 107 0 58-48 106-106 106-59 0-107-47-107-106z m127 60c-21-18-26-36-13-54 12-19 31-21 56-7 3-22-15-49-39-58-27-12-58-2-75 21-18 23-18 55 1 77 17 22 48 31 70 21z"/>
<glyph glyph-name="eye-2" unicode="&#81;" d="M254 377c71-1 132-22 182-66 18-15 31-33 44-52 0-2 0-5-1-6-40-64-100-102-180-114-79-12-150 6-211 52-23 17-41 39-55 62-1 2-1 5 0 6 39 64 100 101 179 115 6 0 11 1 16 1 9 1 18 1 26 2z m46-190c48 10 87 31 117 66 2 3 1 5-1 7-18 21-40 37-67 49-15 7-32 13-51 16 29-17 45-39 45-69 0-30-16-52-43-69z m-88 0c-27 17-43 39-43 69 0 30 16 52 43 69-10-2-21-5-30-8-35-12-64-31-86-57-2-3-3-5 0-8 4-4 8-9 12-13 29-27 64-44 104-52z m14 81c11 1 20 9 20 19 0 10-9 19-21 19-11 0-21-9-20-19 0-11 9-19 21-19z"/>
<glyph glyph-name="download" unicode="&#82;" d="M247 144c5-5 13-5 18 0l151 146c4 5 4 13 0 17l-30 29c-5 6-13 6-18 0l-72-69 0 187c0 6-5 12-12 12l-51 0c-7 0-12-6-12-12l0-192-77 74c-5 6-12 6-18 0l-30-29c-4-4-4-12 0-17z m171 70l0-105-324 0 0 105-62 0 0-137c0-17 14-31 31-31l386 0c17 0 31 14 31 31l0 137z"/>
<glyph glyph-name="badge" unicode="&#83;" d="M429 99l-59 131-3-2c-2-1-3-2-3-3l-15-23c-5-7-13-12-22-13l-27-1c-2 0-3 0-5-1l-3-2-28-61 38-85c4-8 15-9 21-2l29 42c3 4 7 7 10 5l56-2c8 0 15 9 11 17z m-158 75c-4-1-8-2-12-2-5 0-9 1-13 3l-6 3-18 9c-1 1-3 1-4 1l-28 1c-9 1-16 6-21 13l-15 23c-1 1-2 2-3 3l-8 5-60-134c-4-8 2-17 11-17l0 0 56 2c4 0 8-2 10-5l29-42c2-3 6-5 10-5 4 0 9 2 11 7l46 102z m-146 129c2-3 3-7 4-11l1-27c0-4 2-8 5-10l2-1 12-8 10-6c3-1 5-4 7-7l15-24c2-3 5-5 9-5l28-1c4-1 7-1 10-3l2-1 23-12c2-1 4-1 6-1 2 0 3 0 5 1l25 13c0 0 1 1 2 1 2 1 5 2 8 2l1 0 27 1c4 0 7 2 9 5l15 24c2 3 5 6 7 7l24 15c3 3 5 6 6 10l1 28c0 3 1 7 2 10l13 24c2 4 2 8 0 11l-12 25c-2 3-3 7-3 10l-1 28c0 4-2 8-6 10l-24 14c-3 3-5 5-7 8l-15 23c-2 4-5 6-9 6l-28 1c-4 0-7 1-10 3l-25 13c-2 1-3 1-5 1-2 0-4 0-6-1l-25-13c-3-2-6-3-10-3l-28-1c-4 0-7-2-9-6l-15-23c-2-3-5-5-7-8l-24-14c-3-2-5-6-5-10l-2-28c0-3-1-7-3-10l-12-25c-2-3-2-7 0-11z"/>
<glyph glyph-name="graphic" unicode="&#84;" d="M53 48l0-8c0-4 4-8 8-8l390 0c4 0 8 4 8 8l0 8c0 5-4 8-8 8l-18 0c0 0-5 4-5 9l0 407c0 4-4 8-8 8l-90 0c-5 0-9-4-9-8l0-407c0-5-3-9-7-9-4 0-7 4-7 9l0 271c0 5-4 9-9 9l-89 0c-5 0-9-4-9-9l0-271c0-5-3-9-7-9-4 0-7 4-7 9l0 204c0 5-4 9-8 9l-90 0c-5 0-9-4-9-9l0-204c0-5-1-9-2-9l-16 0c-4 0-8-3-8-8z m289 420l65 0c5 0 9-4 9-9l0-45c0-5-4-9-9-9l-65 0c-5 0-9 4-9 9l0 46c0 4 4 8 9 8z m-121-136l65 0c5 0 9-3 9-8l0-137c0-5-4-8-9-8l-65 0c-5 0-9 3-9 8l0 137c0 5 4 8 9 8z m-129-118l0 43c0 5 3 9 8 9l65 0c5 0 9-4 9-9l0-43c0-5-4-9-9-9l-65 0c-5 0-8 4-8 9z"/>
<glyph glyph-name="sun" unicode="&#85;" d="M257 378c-68 0-121-53-121-119-1-67 53-121 119-121 67 0 121 53 121 120 0 66-53 120-119 120z m-120-189c-5 9-15 11-23 7-3-1-5-3-7-4-13-8-26-15-38-23-8-4-11-11-9-19 3-8 10-12 18-12 2-1 4 0 7 1 15 9 31 18 47 27 8 5 9 16 5 23z m237 141c2-7 9-12 16-12 3 0 6 0 8 1 16 10 31 18 46 28 9 4 11 14 6 22-4 8-14 12-22 7-16-8-32-18-48-27-6-4-8-12-6-19z m-114 63c9 0 17 8 17 18 0 8 0 17 0 25l0 26c-1 10-8 17-17 17-10 0-18-7-18-17 0-17 0-34 0-51 0-10 8-18 18-18z m0-274c-10 0-18-7-18-18 0-17 0-33 0-51 0-10 8-17 18-17 9 0 16 7 17 18 0 8 0 17 0 25l0 25c-1 10-8 18-17 18z m-159 122c10 0 17 7 17 16 1 10-6 18-16 18-18 0-36 0-53 0-10 0-17-9-17-17 0-10 8-17 18-17 8 0 17 0 25 0 9 0 17 0 26 0z m362 34c-17 0-35 0-53 0-9 0-16-9-16-17 0-10 8-17 18-17 8 0 17 0 25 0 9 0 17 0 25 0 10 0 18 7 18 16 0 10-6 18-17 18z m-128 96c7 0 12 2 15 8 9 15 18 31 27 46 4 8 1 18-7 22-8 5-18 4-23-4-9-16-18-31-27-47-6-11 3-25 15-25z m108-202c-14 9-29 18-44 26-9 5-19 3-24-6-5-8-2-19 7-24 15-8 29-17 43-25 4-1 7-3 10-2 8 0 15 5 17 12 2 8-1 15-9 19z m-280 214c4-6 9-8 16-8 13 0 21 14 15 25-9 15-18 30-27 45-5 9-15 11-23 6-8-5-11-15-6-23 8-15 17-30 25-45z m-94-37c14-9 29-18 44-26 3-2 5-3 8-3 9 0 15 6 17 13 2 7 0 15-7 19-15 9-30 18-45 26-9 5-19 2-24-6-5-9-2-18 7-23z m120-211c-8 5-19 3-24-6-8-15-17-29-25-43-1-4-3-7-2-10-1-8 4-15 12-17 8-2 15 1 19 8 9 15 17 29 26 44 5 9 3 20-6 24z m160-3c-5 9-16 12-24 7-9-5-11-15-6-24 4-7 9-15 13-22 4-7 8-15 13-22 4-8 12-10 20-8 7 3 11 9 11 17 1 3-1 6-2 9-8 14-17 29-25 43z"/>
<glyph glyph-name="sunny" unicode="&#86;" d="M339 189c-6-3-9-3-11 4-22 53-71 82-127 76-52-6-92-47-102-102-1-3 0-7-4-9-9-4-16-9-22-16 0 0-43-41-1-88 1-1 2-2 3-3l1-1 0 0c10-10 23-16 39-17 17-2 33 0 50-1l143 0c21 0 41 0 61 1 34 1 59 17 73 49 13 30 7 65-17 88-24 24-54 31-86 19z m-178 130c-2-5-3-9-4-14 77 12 150-13 202-68 2 4 3 8 5 12 19 56-10 117-67 137-56 19-117-11-136-67z m281 15c-16-3-32-6-48-9-7-2-11-8-11-14-1-7 4-13 10-16 2-1 5-1 7 0 16 3 32 6 47 9 9 2 13 9 12 18-2 7-9 13-17 12z m-137 63c8-2 17 2 20 10 2 7 4 14 7 22l7 21 0 1c3 8-1 16-9 19-8 3-17-2-20-10-5-14-10-28-15-43-3-8 1-17 10-20z m-222-68c7-2 14-5 22-7l21-8c8-2 16 1 19 9 3 8 0 17-8 20-15 6-30 11-45 15-8 3-17-2-19-9-3-9 2-17 10-20z m360-91c-15 6-30 11-45 15-8 4-17-2-20-9-2-8 2-17 11-20 7-2 14-4 21-7l22-8c8-2 16 1 19 9 3 8 0 17-8 20z m-81 118c6-1 10-1 14 3 13 10 25 20 37 31 6 6 6 15 1 21-5 6-15 8-21 3-13-11-25-21-37-33-8-7-4-21 6-25z m-131 49c11-4 22 5 20 17-3 15-6 31-9 45-2 10-10 14-18 13-8-2-14-9-12-18 3-16 6-30 9-45 1-6 4-10 10-12z m-72-27c2-2 4-4 6-4 8-3 15-1 19 5 4 6 3 13-1 19-10 12-20 23-30 35-7 6-16 7-22 1-7-5-8-15-1-22 9-11 20-23 29-34z"/>
<glyph glyph-name="hat" unicode="&#87;" d="M441 92c-5 0-10 0-16 0-6 1-9 5-7 12 3 10 6 20 11 30 1 3 0 4-3 6-16 12-15 35 2 46 3 1 3 3 3 5 0 41 0 81 0 122 0 4-1 5-5 4-53-14-106-27-159-41-8-2-16-2-23 0-79 20-158 41-236 65-4 2-8 4-8 9 0 5 4 7 8 8 49 15 98 27 148 39 26 7 53 14 80 20 14 4 30 4 45 0 74-19 148-39 221-63 1 0 1 0 2 0 5-2 9-4 8-9 0-6-4-7-8-8-18-5-35-9-52-13-3-1-5-2-5-6 0-42 0-84 0-126 0-3 2-4 4-5 20-9 22-34 4-47-2-2-2-3-1-6 3-10 6-19 10-29 2-8-1-13-9-13-5 0-10 0-14 0z m-350 179c0 9 1 17 0 26 0 4 1 5 5 4 33-10 65-19 99-27 17-4 36-8 54-13 10-2 19 1 29 3 45 12 91 23 136 35 7 2 7 2 7-6 0-14 0-29 0-44 0-10-4-19-11-25-11-11-24-17-38-22-27-9-56-14-84-15-31-3-63-2-94 3-24 3-47 8-69 18-9 4-18 10-25 17-6 6-9 14-9 23 0 8 0 16 0 23z"/>
<glyph glyph-name="hat-alt" unicode="&#88;" d="M501 352c-75 23-149 46-222 69-5 2-9 3-13 4l-2 0c-2-1-4-1-5-2-39-11-78-23-116-34-38-12-76-24-114-36-3-1-5-2-8-4-6-3-7-10-1-14 3-3 7-5 12-6 23-8 46-15 69-22 2 0 4 1 7 2 5 4 9 8 14 12 32 24 68 37 107 40 15 1 31 0 46 0 9 0 14-6 13-14 0-7-6-12-14-12-3 0-6 0-8 0-37 2-71-3-103-20-10-5-19-11-28-17 1-1 2-2 2-2 38-11 75-23 113-34 11-3 22-4 33 0 72 23 145 46 218 69 4 2 7 5 11 8l0 5c-4 3-7 6-11 8z m-272-13c15 1 30 0 45 0 5 0 9 4 10 8 0 5-3 8-8 9-1 1-3 1-4 1-20 1-39 1-59-3-51-8-93-33-125-73-3-4-6-6-10-7-8-2-14-7-16-15-2-9-1-16 6-21 3-4 4-7 4-11-2-17-8-32-18-46-14-18-29-36-43-54-1-2-3-3-4-4 23 15 39 36 51 59 5 0 5-3 3-5-6-10-12-21-19-31-12-16-26-30-42-42l0-1c6-3 12-6 17-10 1 1 2 2 2 2 15 17 29 35 38 56 1 2 3 4 6 1-7-23-16-45-33-64 4 0 8-1 12-1 14 0 26 4 32 17 2 4 4 8 6 12 15 37 22 75 17 115 0 2 1 5 2 7 7 8 9 18 2 27-1 3-1 4 1 6 33 41 76 63 127 68z m-95-108c12-6 25-13 38-17 45-16 91-19 137-10 30 5 59 16 85 31 3 2 4 3 3 7-2 5-3 11-5 18-1 7-3 14-5 21-1 0-1 0-2 0-34-9-67-18-101-27-8-3-16-4-24-2-16 3-32 7-48 11-23 5-46 12-69 18-1 0-1-1-1-1-4-15-7-30-10-44-1-2 1-5 2-5z m-3-9c-4-10-4-10 4-16 15-13 31-23 48-32 32-14 65-21 99-16 44 5 81 25 113 54 6 6 7 7 3 15-88-48-177-52-267-5z"/>
<glyph glyph-name="user-1" unicode="&#89;" d="M496 93c-22 62-62 111-120 144-3 1-5 2-8-1-31-26-67-40-108-41-43-1-82 12-116 41-3 2-5 2-8 1-24-14-45-30-63-50-38-41-62-90-70-146-1-7-2-14-3-22l0-17c168 0 337 0 506 0 4 0 6 1 6 6-1 29-6 57-16 85z m-243 133c82-1 146 63 145 143-1 81-66 141-142 141-80 0-142-64-142-144 1-76 62-139 139-140z"/>
<glyph glyph-name="behance" unicode="&#90;" d="M437 356l-113 0 0 28 113 0z m-187-114c7-12 11-25 11-41 0-17-4-32-13-45-5-9-12-16-20-22-8-7-19-11-31-14-12-2-25-3-39-3l-126 0 0 278 134 0c35 0 59-10 73-29 8-12 12-27 12-43 0-17-4-31-12-41-5-6-12-11-21-16 13-5 25-13 32-24z m-154 44l59 0c12 0 22 2 30 6 8 5 11 13 11 25 0 13-5 21-15 26-8 3-19 4-33 4l-52 0z m106-81c0 14-6 24-18 29-6 4-16 5-28 5l-60 0 0-74 59 0c12 0 22 1 28 5 13 6 19 17 19 35z m276 45c2-9 2-22 2-40l-145 0c0-20 8-34 20-42 9-5 18-7 30-7 11 0 21 3 28 9 4 3 8 8 11 14l53 0c-1-12-7-24-19-37-18-19-43-29-75-29-27 0-50 8-71 25-20 16-30 43-30 80 0 35 9 61 27 80 19 18 43 27 72 27 17 0 33-3 47-9 14-6 25-16 34-30 9-11 14-25 16-41z m-52-5c-1 14-6 24-14 31-9 8-19 11-31 11-13 0-24-4-31-11-7-8-12-18-14-31z"/>
<glyph glyph-name="twitter-1" unicode="&#48;" d="M480 395c-17-7-34-12-53-15 19 12 34 30 40 52-17-11-37-19-58-23-16 18-40 29-67 29-51 0-92-41-92-92 0-7 1-14 2-21-76 4-143 41-189 96-8-13-12-29-12-46 0-32 16-60 41-77-16 1-30 5-42 12l0-1c0-45 31-82 74-90-8-2-16-3-25-3-5 0-11 0-17 1 12-36 46-63 86-63-31-25-71-40-114-40-7 0-15 1-22 1 41-26 89-41 141-41 169 0 261 140 261 261 0 4 0 9 0 13 18 12 34 29 46 47z"/>
<glyph glyph-name="pin-round" unicode="&#50;" d="M279 123l-23-21-23 21c-84 72-126 137-126 197 0 85 66 149 149 149 83 0 149-64 149-149 0-60-42-125-126-197z m-158 73c9-12 19-24 30-36-40-9-66-22-66-32 0-17 77-43 171-43 94 0 171 26 171 43 0 10-26 23-66 32 11 12 21 24 30 36 48-14 78-38 78-68 0-53-95-85-213-85-118 0-213 32-213 85 0 30 30 54 78 68z m135 231c60 0 107-46 107-107 0-44-35-97-107-161-72 64-107 117-107 161 0 61 47 107 107 107z m0-43c35 0 64-29 64-64 0-35-29-64-64-64-35 0-64 29-64 64 0 35 29 64 64 64z m-21-64c0 12 9 21 21 21 12 0 21-9 21-21 0-12-9-21-21-21-12 0-21 9-21 21z"/>
<glyph glyph-name="work-3" unicode="&#52;" d="M358 397l103 0c28 0 51-23 51-51l0-282c0-28-23-51-51-51l-410 0c-28 0-51 23-51 51l0 282c0 28 23 51 51 51l103 0 0 51c0 28 22 51 51 51l102 0c29 0 51-23 51-51z m-153 0l102 0 0 51-102 0z"/>
<glyph glyph-name="edit" unicode="&#53;" d="M442 426c8 8 8 22 0 30l-50 50c-4 4-10 6-15 6-6 0-11-2-15-6l-42-42 80-80z m-63-63l-80 80-210-210c-3-3-4-5-4-8l0-65c0-6 5-11 11-11l65 0c3 0 5 1 7 4z m90-278l-426 0c-24 0-43-19-43-42 0-24 19-43 43-43l426 0c24 0 43 19 43 43 0 23-19 42-43 42z"/>
<glyph glyph-name="comment-alt" unicode="&#54;" d="M461 512l-410 0c-28 0-51-23-51-51l0-461 102 102 359 0c28 0 51 23 51 52l0 307c0 28-23 51-51 51z"/>
<glyph glyph-name="facebook" unicode="&#55;" d="M51 512l410 0c28 0 51-23 51-51l0-410c0-28-23-51-51-51l-410 0c-28 0-51 23-51 51l0 410c0 28 23 51 51 51z m0-51l0-410 231 0 0 141-48 0 0 51 48 0 0 26c0 42 34 77 76 77l26 0 0-52-26 0c-14 0-25-11-25-25l0-26 51 0 0-51-51 0 0-141 128 0 0 410z"/>
<glyph glyph-name="github" unicode="&#56;" d="M214 85c0-2 0-5-1-8-1-4-3-9-6-13-7-13-20-21-36-21-39 0-54 19-73 66-13 33-19 40-34 40l0 43c39 0 54-19 73-67 13-32 19-40 34-40 0 6 0 12-1 19 0 18 0 21 1 26 0 10 3 17 8 24-48 11-80 32-98 67l-7 16c-7 20-10 41-10 67 0 29 9 55 25 77-5 20-4 46 7 74l4 10 10 3c1 0 3 0 4 1 19 3 46-4 80-27 21 5 42 8 64 8 19 0 39-2 57-6 34 21 59 28 78 25 1-1 3-1 4-1l10-3 4-10c10-25 11-48 8-68 19-23 29-51 29-83 0-27-2-47-7-67l-6-16c-16-35-49-57-102-67 6-7 8-15 8-26l0-21c0-11 0-11 0-22 0 0 0-1 0-1 0 0 0-41 0-41-18 0-31 8-38 22-3 8-4 15-4 21l0 42c0 2 0 2-5 6-11 12-17 21-17 37l0 19 20 2c57 6 88 21 98 45l5 13c4 14 5 30 5 54 0 25-8 45-25 62l-9 9 4 12c3 11 4 24 0 38 0 0-1 0-1 0-12-3-26-10-43-22l-8-5-9 2c-18 5-37 7-56 7-21 0-43-3-62-8l-10-3-8 6c-17 12-32 19-44 23-1 0-2 0-3 0-4-17-2-31 2-41l5-13-9-10c-15-15-22-34-22-57 0-21 2-38 7-51l5-14c14-26 44-42 97-47l19-2 0-19c0-16-6-25-17-37-5-4-5-4-5-6l0-4c0-1 0-5 0-19 0-6 0-11 0-16 1-2 1-2 1-4z"/>
<glyph glyph-name="gitlab" unicode="&#57;" d="M365 436l-58-116-102 0-58 116c-9 17-34 15-39-3l-64-214c-3-8 0-17 7-23l192-149c8-6 18-6 26 0l192 149c7 6 10 15 7 23l-64 214c-5 18-30 20-39 3z m-26-147l40 80 44-148-167-130-167 130 44 148 40-80c4-7 11-12 19-12l128 0c8 0 15 5 19 12z"/>
<glyph glyph-name="user-circle" unicode="&#33;" d="M256 0c-141 0-256 115-256 256 0 141 115 256 256 256 141 0 256-115 256-256 0-141-115-256-256-256z m172 137c24 34 37 75 37 119 0 116-93 209-209 209-116 0-209-93-209-209 0-44 13-85 37-119 26 34 88 49 172 49 84 0 146-15 172-49z m-33-38c-7 25-56 41-139 41-83 0-132-16-139-41 37-33 86-52 139-52 53 0 102 19 139 52z m-139 297c-56 0-93-41-93-93 0-80 41-117 93-117 52 0 93 36 93 112 0 53-37 98-93 98z m-47-93c0-53 19-70 47-70 27 0 47 16 47 65 0 29-19 51-47 51-29 0-47-19-47-46z"/>
<glyph glyph-name="user-alt" unicode="&#34;" d="M384 384c0-71-57-128-128-128-71 0-128 57-128 128 0 71 57 128 128 128 71 0 128-57 128-128z m-384-320c0 85 171 128 256 128 85 0 256-43 256-128l0-32c0-18-14-32-32-32l-448 0c-18 0-32 14-32 32z"/>
<glyph glyph-name="grade" unicode="&#35;" d="M13 350l206 112c15 8 32 8 47 0l233-126c8-4 13-12 13-21l0-156c0-13-11-24-24-24-14 0-25 11-25 24l0 143-197-106c-15-8-32-8-47 0l-206 112c-17 9-17 33 0 42z m58-191l0 68 148-80c15-8 32-8 47 0l148 80 0-68c0-18-10-34-25-43l-123-66c-15-8-32-8-47 0l-122 66c-16 9-26 25-26 43z"/>
<glyph glyph-name="send-alt" unicode="&#36;" d="M469 495l-450-178c-26-10-25-44 0-53l164-60c8-3 15-9 18-16l63-154c10-25 46-25 57-1l189 424c10 24-16 48-41 38z"/>
<glyph glyph-name="message" unicode="&#37;" d="M47 465l418 0c26 0 47-20 47-46l0-326c0-26-21-46-47-46l-418 0c-26 0-47 20-47 46l0 326c0 26 21 46 47 46z m0-154l0-218 418 0 0 218-209-104z m0 52l209-104 209 104 0 56-418 0z"/>
<glyph glyph-name="linkedin" unicode="&#38;" d="M51 512l410 0c28 0 51-23 51-51l0-410c0-28-23-51-51-51l-410 0c-28 0-51 23-51 51l0 410c0 28 23 51 51 51z m0-51l0-410 410 0 0 410z m231-128c-14 0-28-4-40-12l-12 12-25 0 0-179 51 0 0 102c0 15 15 26 26 26l25 0c11 0 26-11 26-26l0-102 51 0 0 102c0 47-41 77-77 77z m-128 25c14 0 25 12 25 26 0 14-11 26-25 26-15 0-26-12-26-26 0-14 11-26 26-26z m-26-25l0-179 51 0 0 179z"/>
<glyph glyph-name="twitter" unicode="&#97;" d="M481 395c-13-18-28-34-46-47 0-3 0-7 0-12 0-25-3-50-11-74-7-25-18-49-33-71-14-23-32-43-52-61-21-17-45-31-74-41-29-11-60-16-92-16-52 0-99 14-142 42 7-1 14-2 22-2 43 0 81 14 115 40-20 0-38 6-54 18-16 12-27 27-33 46 7-1 13-2 18-2 8 0 16 1 24 4-21 4-39 15-53 31-14 17-21 37-21 59l0 1c13-7 27-11 42-11-13 8-23 19-30 32-8 14-11 29-11 44 0 17 4 33 12 47 23-28 51-51 84-68 33-17 69-27 107-29-2 8-3 15-3 22 0 25 9 47 27 65 18 18 40 27 66 27 26 0 49-10 67-29 21 4 40 11 59 22-7-22-21-39-41-51 18 2 35 7 53 14z"/>
</font>
</defs>
</svg>
